# xmcd
# 
# Track frame offsets:
#     150
#     26228
#     39944
#     53476
#     66512
#     79877
#     92883
#     106366
#     119755
#     131586
#     145158
#     157674
#     175579
#     188546
#     202655
#     213760
#     225115
#     235903
# 
# Disc length: 3324
# 
# Revision: 1
# Processed by: cddbd v1.5.2PL0 Copyright (c) Steve Scherf et al.
# Submitted via: fre:ac v1.0.17
# 
DISCID=e20cfa12
DTITLE=Various Artist - Robert Johnson - The Heritage CD2 Fathers and Friends
DYEAR=2011
DGENRE=Blues
TTITLE0=Son House - Preachin Blues
TTITLE1=Charley Patton - Some Summer Day
TTITLE2=Robert Johnson - Sweet Home Chicago
TTITLE3=Kokomo Arnold - Old Original Kokomo Blues
TTITLE4=Johnny Shines - Baby Don't You Think I Know
TTITLE5=Robert Johnson - Kindhearted Woman Blues
TTITLE6=Muddy Waters - Walkin' blues
TTITLE7=John Lee 'Sonny Boy' Williamson - Stop Breaking Down
TTITLE8=Robert Johnson - Hellhound On My Trail
TTITLE9=Skip Jammes - Devil Got My Woman
TTITLE10=Elmore James - Dust My Broom
TTITLE11=Robert Jr. Lockwood - Little Queen Of Spades
TTITLE12=Robert Johnson - Come On In My Kitchen
TTITLE13=Lonnie Johnson - Life Saver Blues
TTITLE14=Blind lemmon Jefferson - Change My Luck Blues
TTITLE15=Robert Johnson - Walking Blues
TTITLE16=Buble Bee Slim - Cruel Hearted Woman
TTITLE17=Leroy Carr - When The Sun Goes Down
EXTD=
EXTT0=
EXTT1=
EXTT2=
EXTT3=
EXTT4=
EXTT5=
EXTT6=
EXTT7=
EXTT8=
EXTT9=
EXTT10=
EXTT11=
EXTT12=
EXTT13=
EXTT14=
EXTT15=
EXTT16=
EXTT17=
PLAYORDER=
